<?xml version="1.0" encoding="UTF-8"?>
<svg xmlns="http://www.w3.org/2000/svg" viewBox="0 0 1200 630" width="1200" height="630">
  <defs>
    <linearGradient id="g57045" x1="67.10100716628344%" y1="3.0153689607045777%" x2="32.89899283371656%" y2="96.98463103929542%">
      <stop offset="0%" stop-color="#D97706"/>
      <stop offset="100%" stop-color="#B45309"/>
    </linearGradient>
  </defs>
  <rect width="1200" height="630" fill="url(#g57045)"/>
  <circle cx="431.4597992692143" cy="286.47962871938944" r="85.74980522273108" fill="none" stroke="rgba(255,255,255,0.12)" stroke-width="2"/><line x1="431.4597992692143" y1="286.47962871938944" x2="517.2096044919454" y2="286.47962871938944" stroke="rgba(255,255,255,0.15)" stroke-width="2"/><line x1="431.4597992692143" y1="286.47962871938944" x2="467.8403605242655" y2="322.8601899744407" stroke="rgba(255,255,255,0.15)" stroke-width="1"/><line x1="431.4597992692143" y1="286.47962871938944" x2="431.4597992692143" y2="372.2294339421205" stroke="rgba(255,255,255,0.15)" stroke-width="2"/><line x1="431.4597992692143" y1="286.47962871938944" x2="395.079238014163" y2="322.8601899744407" stroke="rgba(255,255,255,0.15)" stroke-width="1"/><line x1="431.4597992692143" y1="286.47962871938944" x2="345.7099940464832" y2="286.47962871938944" stroke="rgba(255,255,255,0.15)" stroke-width="2"/><line x1="431.4597992692143" y1="286.47962871938944" x2="395.079238014163" y2="250.0990674643382" stroke="rgba(255,255,255,0.15)" stroke-width="1"/><line x1="431.4597992692143" y1="286.47962871938944" x2="431.4597992692143" y2="200.72982349665835" stroke="rgba(255,255,255,0.15)" stroke-width="2"/><line x1="431.4597992692143" y1="286.47962871938944" x2="467.8403605242655" y2="250.09906746433816" stroke="rgba(255,255,255,0.15)" stroke-width="1"/><path d="M 600 180.9650605265051 L 600 203.23847358980925 L 620 198.06429733350024 L 640 180.2832908023931 L 660 161.56256523682524 L 680 206.28467139168646 L 700 176.4301908282976 L 720 214.26980322642387 L 740 208.93417054691784 L 760 183.95900778086514 L 780 168.20797244299789 L 800 167.38866645820858 L 820 147.50714555901405 L 840 152.76295460314344 L 860 162.59439789530379 L 880 162.96769773299013 L 900 182.91452926096346 L 920 168.91915991586566 L 940 186.6811152886042 L 960 187.0697335548356 L 980 162.83086083860292 L 1000 208.7751307913406 L 1020 196.20739185833452 L 1040 193.85438229248697 L 1060 184.48812366737803 L 1080 164.58378262364988 L 1100 188.7707808249735" fill="none" stroke="rgba(255,255,255,0.08407673647161573)" stroke-width="1.5"/><path d="M 600 238.89241092838347 L 600 254.95552762340185 L 620 260.4304177211189 L 640 255.27336192730368 L 660 206.55781763926223 L 680 216.47509724602907 L 700 208.92558268999832 L 720 213.1330032550859 L 740 216.52845270630237 L 760 205.7626950799825 L 780 224.59627191193107 L 800 243.18262029886822 L 820 219.39481777444385 L 840 225.57314914298416 L 860 215.59295742490923 L 880 207.85786361956278 L 900 238.57501003104747 L 920 259.5815917105319 L 940 248.30391292906896 L 960 260.5197387718332 L 980 248.091832817027 L 1000 250.14910165909686 L 1020 261.37749775601424 L 1040 268.2229154238317 L 1060 238.85422377167143 L 1080 214.39295506950847 L 1100 224.57635011600794" fill="none" stroke="rgba(255,255,255,0.08558491945266723)" stroke-width="1.5"/><path d="M 600 323.0033050477505 L 600 326.46319559477183 L 620 350.17933636066385 L 640 306.0101403932498 L 660 297.7836134484214 L 680 298.4929312223457 L 700 313.4294443543574 L 720 335.49643545876785 L 740 335.73969591722874 L 760 329.1729844016812 L 780 333.6509385758033 L 800 290.8193195947018 L 820 307.875192344033 L 840 324.59761523441597 L 860 352.46272296909643 L 880 323.42289116596083 L 900 318.2167584929899 L 920 297.4156418278689 L 940 316.70462004786236 L 960 326.4328163516897 L 980 302.8846566330425 L 1000 310.30320419884305 L 1020 336.6439978808453 L 1040 319.38520248183494 L 1060 304.0212807556913 L 1080 312.79390974918715 L 1100 298.5936131404784" fill="none" stroke="rgba(255,255,255,0.11780467567965389)" stroke-width="1.5"/><path d="M 600 390.15797236934304 L 600 365.5941682095512 L 620 386.00367750855867 L 640 370.87904497179477 L 660 410.8364212543541 L 680 410.61149488476985 L 700 386.86718044483706 L 720 379.29032762702417 L 740 406.09136096238484 L 760 406.75719990835404 L 780 407.80468444489065 L 800 399.5423260330763 L 820 415.4290138009449 L 840 419.1252977604969 L 860 376.05999273668215 L 880 374.894688794873 L 900 393.4602010914065 L 920 375.6605360536572 L 940 370.71000022997504 L 960 392.9213138110357 L 980 362.91271043566013 L 1000 416.55407001109955 L 1020 361.00733365984945 L 1040 421.3373041212148 L 1060 358.03392140838224 L 1080 382.10767122971185 L 1100 405.0547466084583" fill="none" stroke="rgba(255,255,255,0.1139632442733273)" stroke-width="1.5"/><line x1="150" y1="509.2014538915828" x2="1050" y2="509.2014538915828" stroke="rgba(255,255,255,0.12)" stroke-width="2"/><circle cx="227.24432609975338" cy="509.2014538915828" r="5" fill="rgba(255,255,255,0.2)"/><line x1="227.24432609975338" y1="494.2014538915828" x2="227.24432609975338" y2="524.2014538915828" stroke="rgba(255,255,255,0.15)" stroke-width="2"/><circle cx="389.85570481047034" cy="509.2014538915828" r="5" fill="rgba(255,255,255,0.2)"/><line x1="389.85570481047034" y1="494.2014538915828" x2="389.85570481047034" y2="524.2014538915828" stroke="rgba(255,255,255,0.15)" stroke-width="2"/><circle cx="531.4654245506972" cy="509.2014538915828" r="5" fill="rgba(255,255,255,0.2)"/><line x1="531.4654245506972" y1="494.2014538915828" x2="531.4654245506972" y2="524.2014538915828" stroke="rgba(255,255,255,0.15)" stroke-width="2"/><circle cx="669.2910207621753" cy="509.2014538915828" r="5" fill="rgba(255,255,255,0.2)"/><line x1="669.2910207621753" y1="494.2014538915828" x2="669.2910207621753" y2="524.2014538915828" stroke="rgba(255,255,255,0.15)" stroke-width="2"/><circle cx="839.3501067627221" cy="509.2014538915828" r="5" fill="rgba(255,255,255,0.2)"/><line x1="839.3501067627221" y1="494.2014538915828" x2="839.3501067627221" y2="524.2014538915828" stroke="rgba(255,255,255,0.15)" stroke-width="2"/><circle cx="968.5653003305197" cy="509.2014538915828" r="5" fill="rgba(255,255,255,0.2)"/><line x1="968.5653003305197" y1="494.2014538915828" x2="968.5653003305197" y2="524.2014538915828" stroke="rgba(255,255,255,0.15)" stroke-width="2"/>
  <circle cx="246.08466709032655" cy="257.31088830856606" r="2.1812915238551795" fill="rgba(255,255,255,0.05631093898089602)"/><circle cx="176.36241288855672" cy="512.8013768023811" r="2.168080035597086" fill="rgba(255,255,255,0.0393083830550313)"/><circle cx="510.274504031986" cy="105.37122175795957" r="2.459282881580293" fill="rgba(255,255,255,0.041019601707812395)"/><circle cx="340.540461614728" cy="393.3672092319466" r="1.18423958029598" fill="rgba(255,255,255,0.04328086784342304)"/><circle cx="439.03599735349417" cy="307.29810759890825" r="2.158954070415348" fill="rgba(255,255,255,0.05961201232392341)"/><circle cx="556.5801825374365" cy="76.75712540745735" r="2.680564675014466" fill="rgba(255,255,255,0.049821678032167256)"/><circle cx="32.24830012768507" cy="525.947895781137" r="1.5464480291120708" fill="rgba(255,255,255,0.04939964911434799)"/><circle cx="1135.4933984577656" cy="146.0021168855019" r="2.212487068027258" fill="rgba(255,255,255,0.03943396856309846)"/><circle cx="421.2866412475705" cy="417.38177257357165" r="2.6190604167059064" fill="rgba(255,255,255,0.06967547275824473)"/><circle cx="325.3005562350154" cy="30.409350539557636" r="1.2758826450444758" fill="rgba(255,255,255,0.0633829497685656)"/><circle cx="707.6707215048373" cy="18.47763776080683" r="1.9468763158656657" fill="rgba(255,255,255,0.06635217841947452)"/><circle cx="294.1809380427003" cy="366.8726127175614" r="2.4017011616379023" fill="rgba(255,255,255,0.05119591833325103)"/><circle cx="1030.4204592481256" cy="110.42209401726723" r="2.167593049351126" fill="rgba(255,255,255,0.06330303645925597)"/><circle cx="12.358139734715223" cy="503.47888998454437" r="2.0245088394731283" fill="rgba(255,255,255,0.041546885478310286)"/><circle cx="495.70629308000207" cy="513.8957771309651" r="1.206493895035237" fill="rgba(255,255,255,0.055221541011705996)"/><circle cx="15.967648755759" cy="459.83915912685916" r="1.837417893577367" fill="rgba(255,255,255,0.03496227856492624)"/><circle cx="1142.8613556548953" cy="40.32326327171177" r="2.941116006113589" fill="rgba(255,255,255,0.03117365237092599)"/><circle cx="1091.366735380143" cy="522.4313320708461" r="1.3618557625450194" fill="rgba(255,255,255,0.0492893109167926)"/><circle cx="174.2835620418191" cy="238.5751329618506" r="1.720489404629916" fill="rgba(255,255,255,0.036530622637365014)"/><circle cx="247.3320540972054" cy="605.7131403707899" r="1.2545119975693524" fill="rgba(255,255,255,0.03368111778516322)"/>
  <text x="600" y="335" font-family="system-ui, -apple-system, 'Segoe UI', sans-serif" font-size="68" font-weight="700" fill="rgba(0,0,0,0.15)" text-anchor="middle" letter-spacing="1">GCSE History</text>
  <text x="600" y="332" font-family="system-ui, -apple-system, 'Segoe UI', sans-serif" font-size="68" font-weight="700" fill="white" text-anchor="middle" letter-spacing="1">GCSE History</text>
  <g transform="translate(1140, 575)">
    <rect x="0" y="0" width="40" height="40" rx="8" fill="rgba(255,255,255,0.15)"/>
    <text x="20" y="29" font-family="sans-serif" font-weight="bold" font-size="24" fill="rgba(255,255,255,0.6)" text-anchor="middle">K</text>
  </g>
</svg>